<?xml version="1.0" encoding="UTF-8"?> <svg xmlns="http://www.w3.org/2000/svg" width="313.119" height="120.778" viewBox="0 0 313.119 120.778"><g id="Raggruppa_293" data-name="Raggruppa 293" transform="translate(-357.381 -294)"><g id="Raggruppa_273" data-name="Raggruppa 273" transform="translate(-250.13 260.02)"><rect id="Rettangolo_85" data-name="Rettangolo 85" width="178.655" height="69.163" transform="translate(608.685 60.98)" fill="#fff"></rect><rect id="Rettangolo_86" data-name="Rettangolo 86" width="178.655" height="69.165" transform="translate(608.685 60.98)" fill="none" stroke="#b71918" stroke-miterlimit="3.864" stroke-width="1.959"></rect><rect id="Rettangolo_88" data-name="Rettangolo 88" width="179.117" height="36.641" transform="translate(608.4 61.179)" fill="#b71918"></rect><path id="Unione_5" data-name="Unione 5" d="M79.129,13.152C79.129,4.205,87.717,0,94.8,0s15.673,4.205,15.673,13.152S101.884,26.306,94.8,26.306,79.129,22.1,79.129,13.152Zm5.337,0c0,5.525,5.387,8.656,10.335,8.656s10.335-3.13,10.335-8.656S99.752,4.5,94.8,4.5,84.466,7.627,84.466,13.152Zm37.925,12.861v-.882a.667.667,0,0,0,.436-.684,19.41,19.41,0,0,0-1.262-2.885L112.83,2.444c-.338-.685-.872-.978-1.938-1.271V.293h8.686v.88c-.437,0-.972.195-.972.832a11.917,11.917,0,0,0,1.407,3.422l6.212,13.446,6.065-13.249a20.63,20.63,0,0,0,1.6-3.668c0-.538-.484-.783-1.357-.783V.293h8.49v.88c-1.308,0-1.745,1.271-2.037,1.857l-8.589,19.02a13.278,13.278,0,0,0-1.016,2.4c0,.342.193.489.435.684v.882Zm34.787,0v-.88c.24,0,.774-.2.774-.588a2.782,2.782,0,0,0-.388-1.27l-1.842-3.618H143.88l-1.745,3.471a4.564,4.564,0,0,0-.485,1.466c0,.293.437.538.923.538v.88h-6.891v-.88c.823-.1,1.26-.928,1.7-1.857l8.978-19.021a6.2,6.2,0,0,0,.872-2.1c0-.636-.58-.88-1.065-.978V.293h8.2v.88c-.434.1-1.017.293-1.017.978a4.249,4.249,0,0,0,.677,1.81l10.095,19.9a2.645,2.645,0,0,0,1.6,1.272v.88Zm-11.841-9.975h8.638L149.9,6.944ZM67.5,26.012v-.88c.34,0,.631-.147.631-.441,0-.244-.243-.586-.778-1.125L52.559,8.018V24.251c0,.588.437.881,1.116.881v.88H46.494v-.88a.854.854,0,0,0,.922-.881V2.054a.855.855,0,0,0-.922-.881V.293h8.3v.88c-.195,0-.388.147-.388.489,0,.293.291.685.972,1.369L69.3,17.6V2.054c0-.588-.436-.881-1.262-.881V.293h7.328v.88a.855.855,0,0,0-.921.881v22.2a.854.854,0,0,0,.921.881v.88Zm-33.848,0v-.88c.34,0,.631-.147.631-.441,0-.244-.243-.586-.777-1.125L18.711,8.018V24.251c0,.588.437.881,1.116.881v.88H12.646v-.88a.854.854,0,0,0,.922-.881V2.054a.855.855,0,0,0-.922-.881V.293h8.3v.88c-.193,0-.388.147-.388.489,0,.293.291.685.97,1.369L35.451,17.6V2.054c0-.588-.436-.881-1.262-.881V.293h7.328v.88a.856.856,0,0,0-.923.881v22.2a.856.856,0,0,0,.923.881v.88ZM0,26.012v-.88c.825,0,1.26-.293,1.26-.881V2.054c0-.588-.435-.881-1.26-.881V.293H8.054v.88c-.824,0-1.262.293-1.262.881v22.2c0,.588.438.881,1.262.881v.88Z" transform="translate(616.377 66.557)" fill="#fff" stroke="rgba(0,0,0,0)" stroke-miterlimit="10" stroke-width="1"></path><path id="Unione_4" data-name="Unione 4" d="M0,7.623A7.628,7.628,0,0,1,7.622,0a7.7,7.7,0,0,1,6.344,3.441l-.757.606A6.686,6.686,0,0,0,7.564.879,6.824,6.824,0,0,0,.93,7.564a6.707,6.707,0,0,0,6.634,6.684,6.948,6.948,0,0,0,4.307-1.622,4.935,4.935,0,0,0,1.785-3.909H8.418V7.837h6.169a6.533,6.533,0,0,1-1.533,4.906,7.632,7.632,0,0,1-5.548,2.385A7.619,7.619,0,0,1,0,7.623Zm121.87,5.786c-.987-1.232-.987-2.521-.987-4.027V.195h.931V9.108a6.056,6.056,0,0,0,.755,3.714,4.485,4.485,0,0,0,6.559,0,6.056,6.056,0,0,0,.755-3.714V.195h.93V9.381c0,1.506,0,2.8-.99,4.027a5.458,5.458,0,0,1-7.953,0ZM77.853,7.564a7.583,7.583,0,0,1,15.166,0,7.583,7.583,0,0,1-15.166,0Zm.93,0a6.653,6.653,0,1,0,13.306,0,6.653,6.653,0,1,0-13.306,0ZM49.23,14.933,44.457,7.955h-.466v6.978h-.93V.195h1.822a5.35,5.35,0,0,1,3.338.743A3.711,3.711,0,0,1,49.7,4.1c0,2.561-1.766,3.889-4.19,3.85l4.79,6.978ZM43.992,7.074h1.183a3.628,3.628,0,0,0,2.562-.683,2.964,2.964,0,0,0,1.027-2.325,2.819,2.819,0,0,0-1.55-2.659,6.212,6.212,0,0,0-2.62-.332h-.6Zm116.033,7.858V.194H162.6a4.538,4.538,0,0,1,3.16.86,3.916,3.916,0,0,1,1.319,3.031A3.878,3.878,0,0,1,165.861,7a4.819,4.819,0,0,1-3.257.938h-1.649v7Zm.93-7.877h1.686a3.505,3.505,0,0,0,2.56-.8,2.9,2.9,0,0,0,.951-2.209,2.954,2.954,0,0,0-1.1-2.386,4.028,4.028,0,0,0-2.56-.586h-1.533Z" transform="translate(614.896 105.52)" fill="#1d1d1b" stroke="rgba(0,0,0,0)" stroke-miterlimit="10" stroke-width="1"></path><path id="Unione_3" data-name="Unione 3" d="M160.649,5.217c0-1.833.028-5.217,2.622-5.217s2.623,3.383,2.623,5.217-.028,5.218-2.623,5.218S160.649,7.051,160.649,5.217Zm1.417,0c0,2.157.147,3.95,1.2,3.95s1.205-1.794,1.205-3.95-.147-3.95-1.205-3.95S162.067,3.06,162.067,5.217ZM143.358,7.145V.135h1.336V7.588c0,1.31.39,1.578.938,1.578.924,0,1-.593,1.017-1.428V.135h1.336V7.347c0,1.334.014,3.087-2.314,3.087C143.545,10.435,143.358,8.979,143.358,7.145ZM129.637,5.217c0-1.833.028-5.217,2.623-5.217s2.622,3.383,2.622,5.217-.028,5.218-2.622,5.218S129.637,7.051,129.637,5.217Zm1.417,0c0,2.157.147,3.95,1.205,3.95s1.2-1.794,1.2-3.95-.147-3.95-1.2-3.95S131.054,3.06,131.054,5.217Zm44.962,4.732V8.587a2.188,2.188,0,0,0,1.327.527c.828,0,1.176-.661,1.176-1.415,0-2.024-2.824-2.429-2.824-5.1,0-1.429.751-2.6,2.263-2.6a2.706,2.706,0,0,1,1.417.336L179.361,1.7a1.835,1.835,0,0,0-1.138-.431,1.214,1.214,0,0,0-1.189,1.307,1.647,1.647,0,0,0,.376,1.1l1.016,1.12a3.785,3.785,0,0,1,1.432,2.98,2.436,2.436,0,0,1-2.37,2.656A2.341,2.341,0,0,1,176.016,9.949Zm-52.437,0V8.587a2.188,2.188,0,0,0,1.327.527c.831,0,1.176-.661,1.176-1.415,0-2.024-2.824-2.429-2.824-5.1,0-1.429.75-2.6,2.263-2.6a2.707,2.707,0,0,1,1.417.336L126.924,1.7a1.829,1.829,0,0,0-1.134-.431A1.216,1.216,0,0,0,124.6,2.574a1.645,1.645,0,0,0,.376,1.1l1.016,1.12a3.788,3.788,0,0,1,1.431,2.98,2.436,2.436,0,0,1-2.368,2.656A2.343,2.343,0,0,1,123.578,9.949ZM112,5.243C112,2.4,112.223,0,114.551,0a2.319,2.319,0,0,1,2.461,2.074l-1.268.526c-.135-.674-.322-1.334-1.153-1.334-1.1,0-1.177,1.509-1.177,3.963,0,3.532.589,3.937,1.177,3.937.55,0,1.153-.08,1.153-2.507V6.106h-1.125V4.933h2.461v.162c0,1.942.281,5.339-2.407,5.339C112.277,10.434,112,8.116,112,5.243Zm-19.448,0C92.548,2.4,92.775,0,95.1,0a2.322,2.322,0,0,1,2.463,2.074L96.3,2.6c-.135-.674-.322-1.334-1.153-1.334-1.095,0-1.177,1.509-1.177,3.963,0,3.532.589,3.937,1.177,3.937.549,0,1.153-.08,1.153-2.507V6.106H95.17V4.933h2.461v.162c0,1.942.281,5.339-2.407,5.339C92.829,10.434,92.548,8.116,92.548,5.243Zm-20.153.136c0-2.036.253-5.378,3-5.378A2.062,2.062,0,0,1,76.555.3V1.524a1.919,1.919,0,0,0-.857-.257c-1.873,0-1.887,2.75-1.887,4.018,0,1.348.108,3.881,1.941,3.881a1.644,1.644,0,0,0,.8-.2v1.187a1.887,1.887,0,0,1-1.07.282C72.755,10.434,72.394,7.51,72.394,5.379Zm-36.9,0c0-2.036.255-5.378,3-5.378A2.059,2.059,0,0,1,39.656.3V1.524a1.915,1.915,0,0,0-.855-.257c-1.875,0-1.887,2.75-1.887,4.018,0,1.348.106,3.881,1.939,3.881a1.64,1.64,0,0,0,.8-.2v1.187a1.884,1.884,0,0,1-1.07.282C35.857,10.434,35.5,7.51,35.5,5.379ZM59.65,10.3V.135h1.6c1.151,0,2.622.106,2.622,2.724,0,2.061-.8,3.019-2.889,2.938v4.5Zm1.337-5.65c1.15.082,1.472-.552,1.472-1.685,0-.918-.268-1.685-1.285-1.685h-.187ZM156.6,10.3V.136h1.34V10.3Zm-56.3,0V.136h1.338V10.3ZM48,10.3V.135h1.5c1.579,0,3.372.108,3.372,5.257,0,4.692-1.552,4.908-3.947,4.908ZM49.337,1.28V9.154c2.208.066,2.114-2.035,2.114-3.763,0-1.525.141-4.116-1.952-4.116C49.446,1.275,49.392,1.277,49.337,1.28ZM7.636,10.3V.135h1.5c1.579,0,3.372.108,3.372,5.257,0,4.692-1.552,4.908-3.947,4.908ZM8.973,1.28V9.154c2.208.066,2.114-2.035,2.114-3.763,0-1.525.141-4.116-1.952-4.116C9.082,1.275,9.028,1.277,8.973,1.28ZM172.044,10.3l-2.352-7.832-.028.028.079.662.2,3.41V10.3h-1.339V.136h1.285l2.355,7.724.026-.028-.321-4.07V.136h1.339V10.3Zm-20.4,0V1.307h-1.576V.136H154.5V1.307h-1.511V10.3Zm-14.055,0V.136h1.336v8.99h2.251V10.3Zm-29.556,0-2.352-7.832-.028.028.08.662.2,3.41V10.3H104.6V.136h1.285l2.355,7.724.026-.028-.321-4.07V.136h1.336V10.3Zm-18.8,0-.374-1.981H86.853L86.478,10.3H85.166L87.361.135h1.057L90.585,10.3ZM87.052,7.266h1.606L88.391,5.8,87.882,2.1h-.026ZM82.171,10.3,80.284,5.149V10.3H78.919V.136h1.365V5.014L82.171.136H83.55L81.57,5.054l2.14,5.244Zm-13.092,0-.373-1.981H66.7L66.323,10.3H65.012L67.206.135h1.058L70.432,10.3ZM66.9,7.266H68.5L68.236,5.8,67.728,2.1H67.7ZM42.022,10.3V.136h3.6V1.307H43.359V4.5h2.021V5.676H43.359v3.45H45.62V10.3Zm-10.485,0L29.184,2.466l-.028.028.08.662.2,3.41V10.3H28.1V.136h1.285l2.355,7.724.026-.028-.321-4.07V.136H32.78V10.3Zm-7.008,0-.373-1.981H22.149L21.774,10.3H20.463L22.656.135h1.057L25.881,10.3ZM22.348,7.266h1.606L23.685,5.8,23.177,2.1h-.025ZM16.437,10.3,14.484.136h1.337l1.15,7.644H17l.066-.634L17.6,3.722,18.216.136h1.27L17.507,10.3Zm-12.371,0L3.692,8.318H1.686L1.311,10.3H0L2.194.135H3.252L5.42,10.3ZM1.887,7.266h1.6L3.224,5.8,2.714,2.1H2.688Z" transform="translate(608.13 143.824)" fill="#fff" stroke="rgba(0,0,0,0)" stroke-miterlimit="10" stroke-width="1"></path><line id="Linea_23" data-name="Linea 23" x2="179.387" transform="translate(608.742 80.541)" fill="none" stroke="#fff" stroke-miterlimit="3.864" stroke-width="1.959"></line></g><g id="Raggruppa_292" data-name="Raggruppa 292" transform="translate(-26 -244.999)"><path id="Tracciato_5614" data-name="Tracciato 5614" d="M179.289,24.96,154.329,0,128.844,25.483a43.068,43.068,0,0,1,50.445-.523" transform="translate(482.552 539)" fill="#c99d66"></path><path id="Tracciato_5615" data-name="Tracciato 5615" d="M349.579,178.31,374.894,153l-24.931-24.931a43.064,43.064,0,0,1-.385,50.245" transform="translate(321.605 445.622)" fill="#c99d66"></path><path id="Tracciato_5616" data-name="Tracciato 5616" d="M180.44,350.139a43.093,43.093,0,0,1-49.246,1.078L155.278,375.3" transform="translate(480.839 283.699)" fill="#c99d66"></path><path id="Tracciato_5617" data-name="Tracciato 5617" d="M25.333,129.4,0,154.735l24.113,24.112a43.1,43.1,0,0,1,1.22-49.445" transform="translate(576.498 444.647)" fill="#c99d66"></path><path id="Tracciato_5618" data-name="Tracciato 5618" d="M145.77,146.1c-14.979,14.98-39.074,15.17-53.819.425s-14.557-38.842.423-53.821,39.072-15.167,53.818-.421,14.555,38.839-.422,53.817" transform="translate(517.427 479.685)" fill="#b61918"></path><path id="Tracciato_5619" data-name="Tracciato 5619" d="M169.391,155.32a18.091,18.091,0,0,0-9.709-9.709,17.9,17.9,0,0,0-7.094-1.432,17.612,17.612,0,0,0-7.055,1.432,18.174,18.174,0,0,0-9.672,9.709,17.526,17.526,0,0,0-.759,2.166c-.176-.2-.355-.39-.542-.577a14.342,14.342,0,0,0-4.4-2.992,13.362,13.362,0,0,0-5.389-1.1h-1.277v-5.08h16.67l-1.689-3.62h-18.6v12.32h4.9a10.136,10.136,0,0,1,3.973.8,10.94,10.94,0,0,1,3.286,2.2,10.7,10.7,0,0,1,2.989,7.589,10.137,10.137,0,0,1-.786,3.642,10.241,10.241,0,0,1-13.4,5.485,10.97,10.97,0,0,1-3.243-2.125,9.992,9.992,0,0,1-2.24-3.18,9.484,9.484,0,0,1-.829-3.649H110.9a12.782,12.782,0,0,0,1.129,5.021,14.347,14.347,0,0,0,3.024,4.365,14.105,14.105,0,0,0,4.4,2.92,13.5,13.5,0,0,0,5.322,1.064,13.327,13.327,0,0,0,5.389-1.1,14.166,14.166,0,0,0,7.262-7.115,18.061,18.061,0,0,0,2.337,2.88,18.535,18.535,0,0,0,5.775,3.9,17.612,17.612,0,0,0,7.055,1.432,17.9,17.9,0,0,0,7.094-1.432,18.205,18.205,0,0,0,9.709-9.673,17.638,17.638,0,0,0,1.433-7.055,17.908,17.908,0,0,0-1.433-7.093M165.815,168a14.912,14.912,0,0,1-3.094,4.546,14.344,14.344,0,0,1-4.551,3.058,14.576,14.576,0,0,1-11.164,0A14.255,14.255,0,0,1,139.4,168a13.6,13.6,0,0,1-.81-2.607,13.581,13.581,0,0,0-.232-1.554q-.065-.7-.067-1.42a14.166,14.166,0,0,1,1.109-5.582,14.368,14.368,0,0,1,3.059-4.549A14.863,14.863,0,0,1,147,149.188a14.15,14.15,0,0,1,11.172,0,14.72,14.72,0,0,1,7.641,7.64,14.162,14.162,0,0,1,0,11.172" transform="translate(495.638 433.914)" fill="#fff"></path><path id="Tracciato_5620" data-name="Tracciato 5620" d="M312.643,145.543a2.189,2.189,0,0,1-.867-.173,2.212,2.212,0,0,1-1.182-1.182,2.122,2.122,0,0,1-.124-.394c-.01-.1-.021-.171-.036-.245a2.164,2.164,0,0,1-.012-.228,2.2,2.2,0,0,1,.172-.867,2.238,2.238,0,0,1,.475-.707,2.321,2.321,0,0,1,.707-.481,2.2,2.2,0,0,1,1.735,0,2.289,2.289,0,0,1,1.187,1.187,2.2,2.2,0,0,1,0,1.735,2.315,2.315,0,0,1-.481.706,2.229,2.229,0,0,1-.707.475,2.19,2.19,0,0,1-.867.173m-.005-3.331a1.1,1.1,0,1,0,1.1,1.1,1.1,1.1,0,0,0-1.1-1.1" transform="translate(350.156 436.126)" fill="#fff"></path><path id="Tracciato_5621" data-name="Tracciato 5621" d="M128.72,295.872h.877l1.793,7.776h-1.115l-.314-1.516H128.3l-.319,1.516H126.9Zm1.078,5.449-.249-1.239q-.249-1.264-.406-2.7-.076.7-.2,1.418t-.281,1.524l-.206,1Z" transform="translate(483.97 323.267)" fill="#fff"></path><path id="Tracciato_5622" data-name="Tracciato 5622" d="M145.915,295.872h1.051l1.121,3.1a26.824,26.824,0,0,1,.861,2.806q-.136-.9-.2-1.632t-.065-1.375v-2.9h1.132v7.776h-1.056l-1.262-3.5q-.173-.488-.328-1t-.284-1.078c-.007-.047-.019-.1-.035-.171s-.035-.144-.057-.232c.011.087.02.162.027.224s.013.115.016.158l.06.791.06.962c0,.054.006.119.008.2s0,.164,0,.262l.06,3.39h-1.11Z" transform="translate(470.105 323.267)" fill="#fff"></path><path id="Tracciato_5623" data-name="Tracciato 5623" d="M165.068,295.872h1.051l1.121,3.1a26.816,26.816,0,0,1,.861,2.806q-.136-.9-.2-1.632t-.065-1.375v-2.9h1.132v7.776h-1.056l-1.262-3.5q-.173-.488-.328-1t-.284-1.078c-.007-.047-.019-.1-.035-.171s-.035-.144-.057-.232c.011.087.02.162.027.224s.013.115.016.158l.06.791.06.962c0,.054.006.119.008.2s0,.164,0,.262l.06,3.39h-1.11Z" transform="translate(456.14 323.267)" fill="#fff"></path><rect id="Rettangolo_81" data-name="Rettangolo 81" width="1.126" height="7.776" transform="translate(626.396 619.139)" fill="#fff"></rect><path id="Tracciato_5624" data-name="Tracciato 5624" d="M190.68,295.872h1.11l.5,2.871.087.519.178,1.128q.044.287.079.524t.062.428l.054.383q.016-.116.027-.206c.007-.061.014-.111.022-.151l.146-.9.189-1.184c.018-.108.035-.206.052-.3s.031-.171.046-.242l.541-2.871h1.05l-1.641,7.776h-.894Z" transform="translate(437.465 323.267)" fill="#fff"></path><path id="Tracciato_5625" data-name="Tracciato 5625" d="M208.275,295.872h2.995v.886H209.4v2.463h1.657v.887H209.4v2.654h1.868v.887h-2.995Z" transform="translate(424.636 323.267)" fill="#fff"></path><path id="Tracciato_5626" data-name="Tracciato 5626" d="M223.15,295.872h1.484a1.986,1.986,0,0,1,1.37.408,2.107,2.107,0,0,1,.569,1.617,2.613,2.613,0,0,1-.3,1.342,1.278,1.278,0,0,1-.858.627l1.538,3.783h-1.143l-1.533-3.807v3.807H223.15Zm1.127,3.445a1.251,1.251,0,0,0,.926-.282,1.353,1.353,0,0,0,.271-.952,2.907,2.907,0,0,0-.057-.619,1.074,1.074,0,0,0-.179-.418.716.716,0,0,0-.314-.237,1.255,1.255,0,0,0-.458-.075h-.189Z" transform="translate(413.79 323.267)" fill="#fff"></path><path id="Tracciato_5627" data-name="Tracciato 5627" d="M242.524,295.749v1.022a1.725,1.725,0,0,0-.926-.342.963.963,0,0,0-.726.292.992.992,0,0,0-.282.74,1.206,1.206,0,0,0,.2.7,3.114,3.114,0,0,0,.338.4q.236.247.609.594a4.719,4.719,0,0,1,.937,1.123,2.328,2.328,0,0,1,.249,1.123,2.087,2.087,0,0,1-.547,1.486,1.86,1.86,0,0,1-1.4.569,2.042,2.042,0,0,1-1.229-.368v-1.038a2,2,0,0,0,1.094.408.926.926,0,0,0,.72-.285,1.1,1.1,0,0,0,.26-.773,1.462,1.462,0,0,0-.2-.761,3.147,3.147,0,0,0-.287-.37q-.184-.209-.46-.466-.428-.392-.709-.7a3.3,3.3,0,0,1-.417-.529,2.185,2.185,0,0,1-.26-1.118,2.009,2.009,0,0,1,.509-1.446,1.82,1.82,0,0,1,1.381-.539,2.585,2.585,0,0,1,1.148.267" transform="translate(401.879 323.551)" fill="#fff"></path><path id="Tracciato_5628" data-name="Tracciato 5628" d="M255.641,295.872h.877l1.793,7.776H257.2l-.314-1.516h-1.657l-.319,1.516h-1.083Zm1.078,5.449-.249-1.239q-.249-1.264-.406-2.7-.076.7-.2,1.418t-.281,1.524l-.206,1Z" transform="translate(391.426 323.267)" fill="#fff"></path><path id="Tracciato_5629" data-name="Tracciato 5629" d="M272.835,295.872h1.484a1.986,1.986,0,0,1,1.37.408,2.107,2.107,0,0,1,.569,1.617,2.613,2.613,0,0,1-.3,1.342,1.278,1.278,0,0,1-.858.627l1.538,3.783h-1.143l-1.533-3.807v3.807h-1.126Zm1.126,3.445a1.251,1.251,0,0,0,.926-.282,1.353,1.353,0,0,0,.271-.952,2.9,2.9,0,0,0-.057-.619,1.074,1.074,0,0,0-.179-.418.717.717,0,0,0-.314-.237,1.255,1.255,0,0,0-.458-.075h-.189Z" transform="translate(377.563 323.267)" fill="#fff"></path><rect id="Rettangolo_82" data-name="Rettangolo 82" width="1.126" height="7.776" transform="translate(655.071 619.139)" fill="#fff"></rect><path id="Tracciato_5630" data-name="Tracciato 5630" d="M302.741,299.68a6.307,6.307,0,0,1-.493,2.926,1.747,1.747,0,0,1-1.652.866,1.782,1.782,0,0,1-1.716-.932,7.443,7.443,0,0,1-.493-3.238,6.384,6.384,0,0,1,.487-2.936,1.762,1.762,0,0,1,1.668-.866,1.834,1.834,0,0,1,1.56.67,3.039,3.039,0,0,1,.487,1.274,12.349,12.349,0,0,1,.152,2.236m-1.181.111a11.568,11.568,0,0,0-.195-2.68.82.82,0,0,0-1.6-.055,9.9,9.9,0,0,0-.2,2.468,9.147,9.147,0,0,0,.206,2.367.8.8,0,0,0,.791.625.781.781,0,0,0,.78-.585,7.22,7.22,0,0,0,.211-2.14" transform="translate(358.932 323.538)" fill="#fff"></path><path id="Tracciato_5631" data-name="Tracciato 5631" d="M158.19,110.148h-.865l.414-.706h1.205v5h-.755Z" transform="translate(461.786 459.201)" fill="#fff"></path><path id="Tracciato_5632" data-name="Tracciato 5632" d="M169.486,114.385l-.554-.411,1.2-1.629c-.065.009-.12.015-.166.02s-.082.007-.11.007a1.407,1.407,0,0,1-1.05-.464,1.543,1.543,0,0,1-.44-1.107,1.676,1.676,0,0,1,1.668-1.673,1.658,1.658,0,0,1,1.189.486,1.528,1.528,0,0,1,.505,1.141,2.191,2.191,0,0,1-.492,1.26Zm-.389-3.641a.945.945,0,0,0,.946.959.946.946,0,1,0-.667-1.616.9.9,0,0,0-.278.657" transform="translate(453.738 459.43)" fill="#fff"></path><path id="Tracciato_5633" data-name="Tracciato 5633" d="M185.09,110.148h-2.468v-.706h3.728l-3.155,5.172-.6-.379Z" transform="translate(443.36 459.201)" fill="#fff"></path><path id="Tracciato_5634" data-name="Tracciato 5634" d="M198.645,113.5h1.862v.71h-3.359l1.736-2.1q.256-.313.429-.544a3.872,3.872,0,0,0,.264-.385,1.083,1.083,0,0,0,.185-.548.781.781,0,0,0-.246-.586.846.846,0,0,0-.609-.236q-.758,0-.868.9h-.751q.181-1.58,1.6-1.582a1.615,1.615,0,0,1,1.147.435,1.41,1.41,0,0,1,.466,1.076,1.633,1.633,0,0,1-.217.8,3.989,3.989,0,0,1-.322.485q-.212.28-.536.662Z" transform="translate(432.749 459.43)" fill="#fff"></path><path id="Tracciato_5635" data-name="Tracciato 5635" d="M229.465,113.5h1.862v.71h-3.359l1.735-2.1q.257-.313.43-.544a4.042,4.042,0,0,0,.263-.385,1.084,1.084,0,0,0,.185-.548.78.78,0,0,0-.247-.586.844.844,0,0,0-.608-.236q-.759,0-.868.9h-.752q.182-1.58,1.6-1.582a1.616,1.616,0,0,1,1.147.435,1.409,1.409,0,0,1,.467,1.076,1.637,1.637,0,0,1-.218.8,3.976,3.976,0,0,1-.322.485q-.213.28-.536.662Z" transform="translate(410.276 459.43)" fill="#fff"></path><path id="Tracciato_5636" data-name="Tracciato 5636" d="M243.514,111.681a3.011,3.011,0,0,1,.557-1.908,1.453,1.453,0,0,1,2.416,0,3.65,3.65,0,0,1,0,3.876,1.481,1.481,0,0,1-1.205.644,1.5,1.5,0,0,1-1.211-.644,3.117,3.117,0,0,1-.557-1.969m.741,0a2.96,2.96,0,0,0,.289,1.383.77.77,0,0,0,1.47,0,3.3,3.3,0,0,0,0-2.718.77.77,0,0,0-1.467,0,2.772,2.772,0,0,0-.291,1.335" transform="translate(398.942 459.43)" fill="#fff"></path><path id="Tracciato_5637" data-name="Tracciato 5637" d="M259.7,113.5h1.862v.71H258.2l1.735-2.1q.257-.313.43-.544a4.037,4.037,0,0,0,.263-.385,1.085,1.085,0,0,0,.185-.548.779.779,0,0,0-.247-.586.844.844,0,0,0-.608-.236q-.759,0-.868.9h-.752q.182-1.58,1.6-1.582a1.616,1.616,0,0,1,1.147.435,1.409,1.409,0,0,1,.467,1.076,1.637,1.637,0,0,1-.218.8,3.976,3.976,0,0,1-.322.485q-.213.28-.536.662Z" transform="translate(388.233 459.43)" fill="#fff"></path><path id="Tracciato_5638" data-name="Tracciato 5638" d="M274.813,113.5h1.862v.71h-3.359l1.735-2.1q.257-.313.43-.544a4.042,4.042,0,0,0,.263-.385,1.085,1.085,0,0,0,.185-.548.78.78,0,0,0-.247-.586.844.844,0,0,0-.608-.236q-.759,0-.868.9h-.752q.182-1.58,1.6-1.582a1.616,1.616,0,0,1,1.147.435,1.409,1.409,0,0,1,.467,1.076,1.636,1.636,0,0,1-.218.8,3.972,3.972,0,0,1-.322.485q-.213.28-.536.662Z" transform="translate(377.212 459.43)" fill="#fff"></path><path id="Tracciato_5639" data-name="Tracciato 5639" d="M218.256,116.419a1,1,0,1,1-1-1,1,1,0,0,1,1,1" transform="translate(418.812 454.841)" fill="#fff"></path></g></g></svg> 